<svg width="328" height="150" viewBox="0 0 328 150" fill="none" xmlns="http://www.w3.org/2000/svg">
<path d="M130.01 43.6401V90.6454" stroke="#D8E114" stroke-width="5"/>
<path d="M243.407 33.0176L246.86 37.2666M232.253 39.3912L237.299 44.7025" stroke="#D8E114" stroke-width="5"/>
<path d="M275.275 54.5285C275.275 54.5285 271.191 49.6097 268.636 47.8895C264.275 44.9531 261.997 43.9059 256.951 43.9059C251.905 43.9059 258.71 35.3447 256.154 31.6899C255.187 30.3063 253.255 30.0569 251.64 29.5654C248.269 28.5397 246.648 33.2271 246.329 36.7357C246.063 39.6568 247.091 41.2494 245.266 43.6403C242.875 46.7732 239.955 44.0595 236.768 44.9681C232.729 46.1198 229.595 46.7283 226.677 49.7483C222.191 54.3899 220.097 60.051 219.506 66.479C218.756 74.6437 221.274 79.6766 227.208 85.3342C230.96 88.9117 234.949 91.4328 240.752 91.4424C244.399 91.4484 246.164 88.5811 249.781 89.0523C252.225 89.3708 253.211 90.9365 255.623 91.4424C260.68 92.5026 264.28 91.8304 268.636 89.0523C273.512 85.943 275.836 81.5054 276.603 75.7739" stroke="#D8E114" stroke-width="5"/>
<path d="M284.57 34.3452C283.498 32.0191 284.765 28.794 282.446 27.706C280.189 26.6469 276.566 28.2286 275.275 30.3617C273.689 32.9833 278.629 34.2676 279.259 37.2664C280.48 43.0791 279.379 47.0207 276.869 52.4036C273.303 60.0492 268.213 63.1171 261.2 67.8065C253.673 72.8402 239.955 75.7735 239.955 75.7735C239.955 75.7735 235.175 79.4915 242.345 82.6783C249.516 85.865 254.028 84.3433 261.2 82.6783C271.738 80.2321 278.197 76.8359 284.57 68.3378C289.983 61.1207 293.356 55.7149 291.475 47.0924C290.273 41.5824 286.932 39.4664 284.57 34.3452Z" stroke="#D8E114" stroke-width="5"/>
<path d="M243.939 22.1292C246.214 27.5863 244.63 33.1157 239.955 36.7353C235.199 40.4179 229.043 40.4179 224.287 36.7353C219.612 33.1157 218.005 27.5768 220.303 22.1293C222.206 17.6189 226.068 14.7704 230.926 14.1623C236.823 13.4241 241.652 16.6436 243.939 22.1292Z" stroke="black" stroke-width="5"/>
<path d="M243.939 22.1292C246.214 27.5863 244.63 33.1157 239.955 36.7353C235.199 40.4179 229.043 40.4179 224.287 36.7353C219.612 33.1157 218.005 27.5768 220.303 22.1293C222.206 17.6189 226.068 14.7704 230.926 14.1623C236.823 13.4241 241.652 16.6436 243.939 22.1292Z" stroke="#D8E114" stroke-width="5"/>
<path d="M225.349 26.9099L230.395 30.8934L238.627 23.7231" stroke="#D8E114" stroke-width="5" stroke-linecap="round"/>
<path d="M36 91.4422C36 91.4422 36 77.7705 36 60.3709M36 60.3709C36 45.2541 36 27.3234 36 13.1001C36 13.1001 50.1674 14.9775 55.9175 21.3327C61.6676 27.6878 64.4705 38.8753 58.3076 48.4204C52.8928 56.8069 36 60.3709 36 60.3709Z" stroke="#D8E114" stroke-width="5"/>
<path d="M129.745 52.4038C129.745 52.4038 136.5 45.693 142.226 44.7022C147.704 43.7545 153.646 49.4824 153.646 49.4824M172.501 84.0062C185.672 70.835 205.166 51.076 205.166 51.076C205.166 51.076 193.215 38.3287 178.875 43.3745C164.534 48.4204 161.546 58.2462 163.206 68.8688C164.534 77.3669 167.721 80.5538 172.501 84.0062ZM172.501 84.0062C188.17 92.5043 199.058 87.7241 205.166 81.6161" stroke="#D8E114" stroke-width="5"/>
<path d="M74.507 44.7026C73.7104 56.122 73.1792 64.8857 75.3036 76.0395C77.4281 87.1933 88.0106 93.607 97.6113 91.7079C101.764 90.8865 103.719 89.4771 106.641 87.7244C110.27 85.5465 112.51 83.2098 115.139 80.5541M113.014 44.7026L115.139 92.239" stroke="#D8E114" stroke-width="5"/>
<path d="M253.556 127.768C250.935 129.44 247.729 129.926 245.108 128.255C242.879 126.833 241.87 124.545 242.184 121.92C242.56 118.77 245.511 116.99 248.682 117.046C250.782 117.084 252.178 117.735 253.556 119.321" stroke="#D8E114" stroke-width="2.5"/>
<path d="M262.978 118.833C262.978 116.559 259.948 115.259 258.267 117.533C257.626 118.4 257.62 119.757 258.267 120.62C260.216 123.219 264.44 123.056 264.928 125.656C265.354 127.93 263.844 129.24 261.841 129.717C260.099 130.132 256.908 129.632 255.993 128.092" stroke="#D8E114" stroke-width="2.5"/>
<path d="M222.365 117.372V120.784M222.365 129.394C222.365 129.394 222.365 124.146 222.365 120.784M222.365 120.784C223.502 118.578 225.246 117.468 227.726 117.372C230.368 117.27 232.235 118.997 233.087 120.134C233.939 121.27 233.574 129.394 233.574 129.394" stroke="#D8E114" stroke-width="2.5"/>
<path d="M237.96 129.717V117.046" stroke="#D8E114" stroke-width="2.5"/>
<path d="M217.979 121.432C217.081 118.079 213.719 116.077 210.344 116.883C207.209 117.632 205.341 120.323 205.47 123.544C205.607 126.952 208.087 129.544 211.481 129.88C214.333 130.162 216.592 128.976 217.979 126.468M217.979 117.208V131.829" stroke="#D8E114" stroke-width="2.5"/>
<path d="M201.246 120.945C200.169 117.944 197.418 116.281 194.261 116.721C191.67 117.082 189.948 117.833 189.063 120.295C187.733 123.991 190.407 127.821 194.261 128.58C197.835 129.284 201.246 126.63 201.246 126.63M201.246 116.721C201.246 123.056 200.759 127.605 200.759 130.692C200.759 133.778 199.148 135.307 196.698 135.89C193.729 136.596 190.823 135.296 189.063 132.804" stroke="#D8E114" stroke-width="2.5"/>
<path d="M165.345 129.717C159.247 130.215 153.762 125.594 153.486 119.483C153.197 113.117 158.993 107.754 165.345 108.274C171.21 108.753 175.684 113.604 175.417 119.483C175.162 125.085 170.934 129.261 165.345 129.717Z" stroke="#D8E114" stroke-width="2.5"/>
<path d="M179.64 117.046C179.64 117.046 179.64 118.92 179.64 119.808M179.64 129.555C179.64 129.555 179.64 123.804 179.64 119.808M179.64 119.808C180.94 118.508 181.752 117.046 183.864 117.696C184.868 118.005 185.814 118.67 185.814 118.67" stroke="#D8E114" stroke-width="2.5"/>
<path d="M96.1399 116.559V119.97M96.1399 131.992V126.631M96.1399 126.631C96.1399 126.631 91.2664 130.042 87.53 129.23C84.2843 128.524 82.7081 125.153 83.4687 121.919C84.014 119.601 85.333 118.29 87.53 117.371C90.7703 116.016 96.1399 119.97 96.1399 119.97M96.1399 126.631V119.97" stroke="#D8E114" stroke-width="2.5"/>
<path d="M99.3892 117.533L105.237 129.555L111.411 117.533" stroke="#D8E114" stroke-width="2.5"/>
<path d="M63 108.598V120.944M63 129.554V120.944M63 120.944H78.7578M78.7578 129.554V108.598" stroke="#D8E114" stroke-width="2.5"/>
<path d="M128.468 116.928C128.468 116.928 128.468 118.908 128.468 120.177M128.468 129.599C128.468 129.599 128.468 123.856 128.468 120.177M128.468 120.177C129.589 117.817 131.72 116.633 134.316 116.928C136.485 117.174 136.972 117.57 138.215 119.364C140.21 122.244 139.515 126.306 139.515 129.599" stroke="#D8E114" stroke-width="2.5"/>
<path d="M125.219 126.793C123.432 128.58 122.132 129.23 119.696 129.23C118.484 129.23 116.772 128.417 116.772 128.417M116.772 128.417C115.289 127.771 114.172 125.656 114.172 124.031C114.172 121.159 115.184 118.929 117.909 118.021C120.833 117.046 125.219 119.32 125.219 119.32C125.219 119.32 120.021 125.656 116.772 128.417Z" stroke="#D8E114" stroke-width="2.5"/>
</svg>
